<?xml version="1.0" encoding="utf-8"?>
<!-- Generator: Adobe Illustrator 26.1.0, SVG Export Plug-In . SVG Version: 6.00 Build 0)  -->
<svg version="1.1" id="Calque_1" xmlns="http://www.w3.org/2000/svg" xmlns:xlink="http://www.w3.org/1999/xlink" x="0px" y="0px"
	 viewBox="0 0 60.31 57.89" style="enable-background:new 0 0 60.31 57.89;" xml:space="preserve">
<style type="text/css">
	.st0{fill:#F96652;}
	.st1{fill:#DD4A37;}
	.st2{fill:#F0E6E5;}
</style>
<g>
	<path class="st0" d="M25.61,3.68c12.56-3.1,26.12,5.44,29.57,18.61c3.6,13.74-4.4,27.87-17.98,31.51
		c-3.78,1.01-7.68,1.97-11.59,0.35c-1.78-1.2-3.55-2.42-5.33-3.6C5.57,40.8,3.99,21.3,17.09,9.65C19.67,7.36,22.75,5.66,25.61,3.68z
		 M24.33,27.72c-1.78,3.39-3.73,4.84-5.46,6.23c-3.07,2.46-1.83,4,0.33,6.24c2.24,2.32,3.57,2.46,5.89,0.04
		c4.97-5.2,5.27-5.21,9.95-0.21c2.39,2.56,3.8,2.52,6.25,0.04c2.4-2.42,2.65-3.81,0.04-6.26c-5.09-4.76-5.11-5.1-0.21-9.57
		c2.77-2.53,2.7-3.97,0.06-6.63c-2.69-2.7-4.06-1.97-6.26,0.35c-4.61,4.85-4.72,4.75-9.67-0.09c-0.24-0.23-0.51-0.44-0.7-0.71
		c-2.24-3.11-3.78-0.98-5.41,0.69c-1.59,1.63-3.91,3.11-0.76,5.41C20.37,24.72,22.35,26.23,24.33,27.72z"/>
	<path class="st1" d="M25.61,3.68c-2.85,1.97-5.94,3.68-8.51,5.97C3.99,21.3,5.57,40.8,20.27,50.56c1.79,1.19,3.55,2.4,5.33,3.6
		C13.27,52.69,4.16,41.86,4.19,28.67C4.23,15.88,13.45,5.11,25.61,3.68z"/>
	<path class="st2" d="M24.33,27.72c-1.99-1.49-3.96-3-5.97-4.47c-3.15-2.3-0.82-3.78,0.76-5.41c1.63-1.67,3.17-3.8,5.41-0.69
		c0.19,0.27,0.46,0.48,0.7,0.71c4.94,4.84,5.06,4.94,9.67,0.09c2.21-2.32,3.58-3.04,6.26-0.35c2.65,2.66,2.72,4.1-0.06,6.63
		c-4.89,4.47-4.88,4.81,0.21,9.57c2.62,2.45,2.36,3.83-0.04,6.26c-2.45,2.48-3.86,2.52-6.25-0.04c-4.68-5-4.97-5-9.95,0.21
		c-2.31,2.42-3.65,2.27-5.89-0.04c-2.16-2.24-3.4-3.78-0.33-6.24C20.61,32.55,22.55,31.11,24.33,27.72z"/>
</g>
</svg>
