<?xml version="1.0" encoding="utf-8"?>
<!-- Generator: Adobe Illustrator 26.1.0, SVG Export Plug-In . SVG Version: 6.00 Build 0)  -->
<svg version="1.1" id="Calque_1" xmlns="http://www.w3.org/2000/svg" xmlns:xlink="http://www.w3.org/1999/xlink" x="0px" y="0px"
	 viewBox="0 0 1366 768" style="enable-background:new 0 0 1366 768;" xml:space="preserve">
<style type="text/css">
	.st0{fill:#010100;}
	.st1{fill:#030303;}
	.st2{fill:#FD9F01;}
	.st3{fill:#FDD34E;}
	.st4{fill:#FDBF07;}
</style>
<g>
	<path class="st0" d="M887.52,436.08c-1.34,1.56-1.26,3.6-1.81,5.42c-5.34,17.8-21.57,30.65-40.29,31.33
		c-13.52,0.49-27.07,0.47-40.61-0.07c-5.24-3.37-6.9-6.58-5.71-10.99c1.11-4.12,4.73-6.49,10.19-6.51
		c10.99-0.04,21.98,0.03,32.97-0.03c7.57-0.04,14.28-2.32,19.58-7.99c5.88-5.43,7.96-12.45,7.96-20.12
		c0.05-64.12,0.05-128.23,0-192.35c-0.01-6.04-1.11-11.89-5.12-16.78c-5.83-8.71-14.44-11.54-24.4-11.54
		c-69.28,0.01-138.56,0-207.85,0c-35.51,0-71.01,0-106.52,0c-9.99,0-18.52,3.03-24.36,11.67c-3.77,4.85-4.94,10.55-4.95,16.46
		c-0.05,64.19-0.06,128.37,0,192.56c0.01,7.66,2.09,14.67,7.96,20.1c5.3,5.68,12.01,7.95,19.58,8c11.12,0.06,22.25-0.05,33.37,0.04
		c6.9,0.06,11.13,4.84,9.87,10.84c-0.7,3.31-3.15,5.05-5.8,6.64c-15.8,0.15-31.73,1.87-47.36-0.85
		c-20.55-3.58-35.27-21.89-35.3-42.73c-0.09-65.43-0.11-130.86,0-196.29c0.04-24.89,19.88-44.12,45.33-44.16
		c48.01-0.07,96.01-0.02,144.02-0.02c56.92,0,113.83,0,170.75,0c25.93,0,41.44,12.03,47.89,37.1c0.04,0.17,0.41,0.25,0.62,0.38
		C887.52,296.14,887.52,366.11,887.52,436.08z"/>
	<path class="st1" d="M682.52,561.62c21.34,0.06,39.13-7.06,54.39-20.76c2.6-2.34,5.35-4.54,9.15-3.93
		c3.52,0.56,6.17,2.56,7.29,5.99c1.21,3.73,0.12,7.04-2.69,9.73c-4.33,4.15-9.02,7.85-14.02,11.15
		c-57.18,37.79-135.8,4.91-149.19-62.38c-10.03-50.39,20.2-99.98,69.28-113.65c55.61-15.49,112.55,20.08,122.7,76.92
		c2.39,13.38,2.82,26.9-1.63,40.14c-4.32,12.85-13.5,19.72-26.62,21.24c-11.72,1.36-22.48-0.96-30.86-10.21
		c-1.29-1.43-1.93-4.3-3.65-4.16c-1.56,0.13-2.91,2.45-4.41,3.74c-14.47,12.47-35.16,14.47-51.58,5.01
		c-16.67-9.61-25.29-28.34-21.89-47.53c3.2-18.05,18.64-32.89,37.19-35.74c27.25-4.19,51.42,16.82,51.88,45.21
		c0.08,5.07,0.44,10.04,2.2,14.85c3,8.2,8.95,11.95,17.54,11.02c9.03-0.98,13.38-5.24,14.64-14.35
		c5.79-41.79-20.37-80.27-61.04-89.78c-42.02-9.83-84.69,16.21-95.36,58.21c-11.61,45.69,18.85,91.34,65.56,98.44
		C675.36,561.38,679.32,561.24,682.52,561.62z M709.57,482.17c0.09-14.74-11.53-26.64-26.22-26.87
		c-14.36-0.22-26.57,11.97-26.59,26.56c-0.02,14.6,11.99,26.67,26.48,26.6C697.71,508.4,709.48,496.64,709.57,482.17z"/>
	<path class="st2" d="M561.57,472.75c2.64-1.59,5.1-3.34,5.8-6.64c1.26-6-2.97-10.79-9.87-10.84c-11.12-0.09-22.25,0.02-33.37-0.04
		c-7.57-0.04-14.28-2.32-19.58-8c4.11-4.13,9.06-7.49,11.89-12.8c6,4.4,9.48,4.13,14.94-1.32c28.39-28.37,56.76-56.74,85.13-85.13
		c5.35-5.35,5.7-8.36,1.85-14.73c4.15-3.67,8.58-7.07,11.39-12.01c8.08,5.77,16.18,11.51,24.24,17.31
		c19.32,13.89,39.12,13.87,58.47-0.06c7.74-5.57,15.53-11.05,23.3-16.57c4.09,3.77,8.18,7.55,12.27,11.32
		c-3.78,6.24-3.49,9.4,1.55,14.45c28.55,28.59,57.12,57.16,85.71,85.71c5.15,5.14,8.8,5.34,14.66,1.03
		c2.83,5.32,7.79,8.67,11.89,12.81c-5.3,5.67-12.01,7.95-19.57,7.99c-10.99,0.06-21.98-0.01-32.97,0.03
		c-5.46,0.02-9.08,2.39-10.19,6.51c-1.19,4.41,0.48,7.62,5.71,10.99c-6.7,0.5-6.47,0.47-7.43-5.93c-6.38-42.47-29-73.33-68.21-90.53
		c-38.66-16.96-76.55-12.96-111.42,10.71c-28.01,19.01-44.09,46.1-48.81,79.82C567.93,473.93,569.93,473.05,561.57,472.75z"/>
	<path class="st3" d="M501.55,218.11c5.84-8.64,14.37-11.67,24.36-11.67c35.51,0.01,71.01,0,106.52,0c69.28,0,138.56,0,207.85,0
		c9.96,0,18.57,2.83,24.4,11.54c-4.74,3.32-9.49,6.64-14.23,9.96c-5.52-4.75-8.59-4.84-14.85-0.31
		c-44.26,31.96-88.51,63.92-132.76,95.88c-14.19,10.25-25.07,10.22-39.31-0.07c-44.25-31.96-88.51-63.91-132.78-95.86
		c-6.2-4.47-9.3-4.36-14.83,0.43C511.12,224.72,506.33,221.41,501.55,218.11z"/>
	<path class="st4" d="M850.44,227.94c4.74-3.32,9.49-6.64,14.23-9.96c4.01,4.89,5.12,10.73,5.12,16.78
		c0.05,64.12,0.06,128.23,0,192.35c-0.01,7.67-2.08,14.69-7.96,20.12c-4.1-4.14-9.06-7.49-11.89-12.81
		c3.05-5.81,2.56-8.97-2.29-13.81c-28.4-28.41-56.8-56.82-85.21-85.22c-5.24-5.24-8.1-5.65-14.42-2.16
		c-4.09-3.77-8.18-7.55-12.27-11.32c1.34-1.06,2.64-2.18,4.02-3.18c35.48-25.62,70.96-51.22,106.44-76.84
		C852.08,237.65,852.96,234.64,850.44,227.94z"/>
	<path class="st4" d="M501.55,218.11c4.79,3.3,9.58,6.6,14.36,9.9c-2.47,6.71-1.57,9.63,4.37,13.92
		c16.27,11.76,32.56,23.48,48.81,35.26c20.23,14.65,40.43,29.35,60.65,44.02c-2.8,4.94-7.24,8.34-11.39,12.01
		c-6.21-3.43-9.19-3.08-14.14,1.86c-28.6,28.59-57.19,57.18-85.77,85.79c-4.57,4.58-5,7.83-2.01,13.53
		c-2.83,5.32-7.78,8.67-11.89,12.8c-5.87-5.42-7.95-12.43-7.96-20.1c-0.06-64.19-0.05-128.37,0-192.56
		C496.6,228.66,497.78,222.96,501.55,218.11z"/>
	<path class="st0" d="M629.74,321.22c-20.21-14.68-40.42-29.37-60.65-44.02c-16.25-11.77-32.55-23.5-48.81-35.26
		c-5.94-4.3-6.84-7.22-4.37-13.92c5.53-4.79,8.63-4.9,14.83-0.43c44.26,31.95,88.52,63.9,132.78,95.86
		c14.24,10.29,25.13,10.32,39.31,0.07c44.25-31.96,88.5-63.93,132.76-95.88c6.26-4.52,9.33-4.44,14.85,0.31
		c2.52,6.7,1.64,9.71-4.22,13.94c-35.48,25.62-70.96,51.22-106.44,76.84c-1.38,1-2.68,2.12-4.02,3.18
		c-7.77,5.52-15.57,11-23.3,16.57c-19.35,13.93-39.15,13.95-58.47,0.06C645.92,332.73,637.82,326.99,629.74,321.22z"/>
	<path class="st1" d="M516.45,434.42c-2.99-5.7-2.56-8.96,2.01-13.53c28.57-28.61,57.17-57.21,85.77-85.79
		c4.94-4.94,7.92-5.29,14.14-1.86c3.85,6.37,3.5,9.39-1.85,14.73c-28.37,28.38-56.74,56.76-85.13,85.13
		C525.93,438.55,522.45,438.82,516.45,434.42z"/>
	<path class="st1" d="M748.02,333.23c6.32-3.49,9.18-3.08,14.42,2.16c28.41,28.4,56.82,56.81,85.21,85.22
		c4.85,4.85,5.34,8.01,2.29,13.81c-5.87,4.31-9.51,4.11-14.66-1.03c-28.59-28.55-57.15-57.12-85.71-85.71
		C744.53,342.63,744.24,339.46,748.02,333.23z"/>
</g>
</svg>
