<?xml version="1.0" encoding="utf-8"?>
<!-- Generator: Adobe Illustrator 26.1.0, SVG Export Plug-In . SVG Version: 6.00 Build 0)  -->
<svg version="1.1" id="Calque_1" xmlns="http://www.w3.org/2000/svg" xmlns:xlink="http://www.w3.org/1999/xlink" x="0px" y="0px"
	 viewBox="0 0 1366 768" style="enable-background:new 0 0 1366 768;" xml:space="preserve">
<style type="text/css">
	.st0{fill:#000101;}
	.st1{fill:#3B5998;}
</style>
<path class="st0" d="M874.95,228.82c0,103.71,0,207.43,0,311.14c-1.35,0.68-1.06,2.14-1.34,3.23c-3.29,12.48-10.7,21.63-21.92,27.85
	c-4.68,2.59-9.86,3.51-14.9,4.92c-28.44,0-56.87,0-85.31,0c-7.08-3.8-8.42-9.94-8.36-17.52c0.29-34.98,0.12-69.97,0.13-104.95
	c0-8.73,4.63-13.38,13.37-13.41c11.22-0.03,22.45-0.12,33.67,0.07c2.84,0.05,3.81-0.92,4.43-3.53c2.64-11.15,5.46-22.27,8.3-33.38
	c0.61-2.4,0.43-3.39-2.53-3.36c-14.84,0.16-29.68,0.12-44.52,0.05c-7.81-0.04-12.69-4.88-12.71-12.57
	c-0.05-15.87-0.12-31.74,0.03-47.6c0.14-15.35,12.32-27.45,27.64-27.69c5.98-0.09,11.97-0.09,17.96,0.02c1.8,0.03,2.3-0.49,2.29-2.3
	c-0.08-11.74-0.09-23.49,0.01-35.23c0.02-1.99-0.56-2.5-2.5-2.48c-8.85,0.1-17.71,0.06-26.56,0.04c-5.99-0.01-11.96,0.05-17.86,1.33
	c-33.81,7.32-56.71,35.51-56.93,70.19c-0.09,14.37,0.01,28.74-0.03,43.11c-0.02,8.55-4.65,13.17-13.17,13.2
	c-10.6,0.04-21.2,0.07-31.8-0.04c-2.28-0.02-2.99,0.58-2.97,2.93c0.12,11.37,0.15,22.74-0.02,34.11c-0.04,2.85,1.08,3.2,3.48,3.17
	c10.1-0.11,20.2-0.05,30.3-0.05c9.81,0.01,14.15,4.32,14.17,14.09c0.09,35.61,0.08,71.22,0.34,106.83
	c0.05,7.34-2.51,12.41-9.5,14.97c-50.14,0-100.27,0-150.41,0c-0.15-0.83-0.85-0.74-1.43-0.86c-19.63-4.15-34.8-21.79-34.64-45.71
	c0.44-67.43,0.15-134.86,0.16-202.29c0-30.47-0.07-60.94,0.03-91.41c0.06-18.95,11.4-34.79,29.05-41.23c2.5-0.91,5.3-0.8,7.59-2.36
	c103.02,0,206.03,0,309.05,0c0.24,0.23,0.45,0.63,0.72,0.68c17.63,2.93,28.88,13.28,34.78,29.91
	C873.75,224.69,873.58,227,874.95,228.82z M515.77,383.85c0,49.35-0.01,98.7,0.01,148.06c0.01,11.4,8.21,20,19.31,20.02
	c41.65,0.07,83.3,0.01,124.95,0.08c2.65,0.01,3.34-0.8,3.33-3.38c-0.09-26.99-0.09-53.98,0-80.96c0.01-2.74-0.66-3.67-3.52-3.62
	c-10.22,0.17-20.45,0.09-30.68,0.06c-8.76-0.03-13.72-4.96-13.74-13.72c-0.03-20.24-0.03-40.48,0-60.72
	c0.01-8.79,4.93-13.71,13.69-13.75c8.35-0.04,16.71-0.01,25.07-0.01c9.13,0,9.05,0,9.15-9.13c0.16-14.46-0.73-28.94,2.07-43.31
	c8.1-41.61,46.91-74.55,89.14-75.19c15.83-0.24,31.67-0.1,47.51-0.08c8.22,0.01,13.02,4.81,13.03,13.02
	c0.02,20.62,0.03,41.23,0,61.85c-0.01,8.16-4.88,12.95-13.13,12.97c-9.73,0.03-19.45-0.01-29.18,0.02
	c-4.29,0.01-5.55,1.28-5.57,5.58c-0.03,10.12,0.11,20.24-0.08,30.36c-0.06,3.06,0.71,4.02,3.89,3.99
	c15.59-0.17,31.17-0.12,46.76-0.06c9.55,0.04,14.92,6.98,12.61,16.27c-5.02,20.2-10.08,40.39-15.15,60.58
	c-2.1,8.37-5.94,11.32-14.64,11.33c-9.85,0.01-19.71,0.13-29.55-0.07c-3.15-0.07-3.93,0.87-3.91,3.96
	c0.12,26.74,0.13,53.48-0.01,80.21c-0.02,3.27,1.05,3.84,4.02,3.82c19.58-0.13,39.16-0.06,58.73-0.07c13.26,0,21.13-7.9,21.13-21.21
	c0-97.83,0-195.66,0-293.49c0-13.29-7.88-21.18-21.17-21.18c-97.64,0-195.28,0-292.93,0c-13.27,0-21.14,7.91-21.14,21.21
	C515.76,286.14,515.77,334.99,515.77,383.85z"/>
<path class="st1" d="M515.77,383.85c0-48.85,0-97.71,0-146.56c0-13.31,7.87-21.21,21.14-21.21c97.64,0,195.28,0,292.93,0
	c13.29,0,21.17,7.89,21.17,21.18c0,97.83,0,195.66,0,293.49c0,13.31-7.87,21.21-21.13,21.21c-19.58,0.01-39.16-0.06-58.73,0.07
	c-2.97,0.02-4.04-0.54-4.02-3.82c0.14-26.74,0.13-53.48,0.01-80.21c-0.01-3.09,0.76-4.03,3.91-3.96c9.85,0.21,19.7,0.08,29.55,0.07
	c8.7-0.01,12.54-2.97,14.64-11.33c5.07-20.19,10.13-40.38,15.15-60.58c2.31-9.29-3.05-16.23-12.61-16.27
	c-15.59-0.06-31.18-0.11-46.76,0.06c-3.18,0.03-3.95-0.92-3.89-3.99c0.19-10.12,0.05-20.24,0.08-30.36c0.01-4.3,1.28-5.57,5.57-5.58
	c9.73-0.03,19.45,0.01,29.18-0.02c8.24-0.02,13.11-4.81,13.13-12.97c0.03-20.62,0.03-41.23,0-61.85
	c-0.01-8.21-4.8-13.01-13.03-13.02c-15.84-0.02-31.68-0.16-47.51,0.08c-42.23,0.64-81.05,33.57-89.14,75.19
	c-2.8,14.37-1.91,28.85-2.07,43.31c-0.1,9.13-0.02,9.13-9.15,9.13c-8.36,0-16.71-0.03-25.07,0.01c-8.76,0.04-13.67,4.96-13.69,13.75
	c-0.03,20.24-0.03,40.48,0,60.72c0.01,8.75,4.97,13.68,13.74,13.72c10.23,0.04,20.45,0.11,30.68-0.06c2.86-0.05,3.53,0.88,3.52,3.62
	c-0.09,26.99-0.09,53.98,0,80.96c0.01,2.59-0.68,3.39-3.33,3.38c-41.65-0.08-83.3-0.02-124.95-0.08
	c-11.1-0.02-19.3-8.62-19.31-20.02C515.75,482.55,515.77,433.2,515.77,383.85z"/>
</svg>
