<?xml version="1.0" encoding="utf-8"?>
<!-- Generator: Adobe Illustrator 26.1.0, SVG Export Plug-In . SVG Version: 6.00 Build 0)  -->
<svg version="1.1" id="Calque_1" xmlns="http://www.w3.org/2000/svg" xmlns:xlink="http://www.w3.org/1999/xlink" x="0px" y="0px"
	 viewBox="0 0 1366 768" style="enable-background:new 0 0 1366 768;" xml:space="preserve">
<style type="text/css">
	.st0{fill:url(#SVGID_1_);}
	.st1{fill:#010000;}
</style>
<g>
	<linearGradient id="SVGID_1_" gradientUnits="userSpaceOnUse" x1="514.9113" y1="384" x2="851.0887" y2="384">
		<stop  offset="0" style="stop-color:#FE9D4A"/>
		<stop  offset="0.2607" style="stop-color:#FE6140"/>
		<stop  offset="0.5358" style="stop-color:#F14D57"/>
		<stop  offset="0.6869" style="stop-color:#E34672"/>
		<stop  offset="1" style="stop-color:#DC4280"/>
	</linearGradient>
	<path class="st0" d="M799.5,215.91h-233c-28.49,0-51.59,23.1-51.59,51.59v233c0,28.49,23.1,51.59,51.59,51.59h233
		c28.49,0,51.59-23.1,51.59-51.59v-233C851.09,239.01,827.99,215.91,799.5,215.91z M683,460.77c-42.4,0-76.77-34.37-76.77-76.77
		s34.37-76.77,76.77-76.77s76.77,34.37,76.77,76.77S725.4,460.77,683,460.77z"/>
	<path class="st1" d="M806.84,575.94c-83.06,0-166.12,0-249.18,0c-0.85-1.44-2.43-1.01-3.64-1.25
		c-36.33-7.08-62.13-37.77-62.18-74.56c-0.11-77.42-0.1-154.84,0-232.26c0.05-35.39,24.13-65.49,58.52-73.8
		c2.68-0.65,5.58-0.49,8.05-2.01c83.06,0,166.12,0,249.18,0c0.12,0.6,0.56,0.68,1.08,0.74c29.76,3.6,55.01,25.14,63.22,53.97
		c1.13,3.97,2.04,8.01,3.05,12.02c0,83.72,0,167.44,0,251.17c-1.43,0.85-0.99,2.43-1.25,3.64c-6.64,30.6-24.9,50.47-54.74,59.62
		C815,574.42,810.88,575.04,806.84,575.94z M562.84,216.42c-2.91,0.47-5.87,0.73-8.71,1.46c-19.43,4.96-35.26,22.31-37.62,42.14
		c-1.88,15.77-0.57,31.67-0.64,47.52c-0.03,1.25-0.1,2.49-0.1,3.74c-0.02,62.31,0.27,124.63-0.19,186.94
		c-0.22,29.54,23.33,54.31,53.77,53.87c34.39-0.49,68.8-0.12,103.2-0.15c16.82-0.01,33.65-0.07,50.47-0.11
		c26.53,0.01,53.06,0.08,79.59-0.02c4.34-0.02,8.61-1.12,12.75-2.52c10.81-3.67,19.59-10.06,25.98-19.61
		c6.16-7.77,9.23-16.94,9.41-26.54c0.47-23.71,0.12-47.43,0.1-71.15c0.04-1.25,0.12-2.49,0.12-3.74
		c0.01-52.95-0.2-105.9,0.09-158.85c0.15-28.14-21.14-53.33-53.3-53.34c-31.53,0-63.07-0.01-94.6,0
		c-12.34,0.01-24.67,0.08-37.01,0.12c-0.62-0.04-1.24-0.11-1.86-0.11c-32.34-0.01-64.68-0.02-97.02,0
		C565.8,216.07,564.32,216.29,562.84,216.42z"/>
	<path class="st1" d="M773.91,347.28c-2.43-5.33-4.99-10.6-8.11-15.58c-7.33-11.71-17.02-21.13-28.08-29.22
		c-0.86-0.49-1.74-0.95-2.59-1.46c-20.78-12.58-43.11-17.54-67.25-13.82c-12.44,1.92-23.94,6.38-34.86,12.5
		c-3.38,1.3-5.92,3.84-8.72,5.98c-12.15,9.28-21.71,20.71-28.64,34.37c-7.14,14.06-10.17,29.08-10.63,44.73
		c0.06,0.87,0.14,1.74,0.19,2.6c1.5,28.72,12.98,52.6,34.7,71.42c12.46,10.8,26.99,17.56,42.97,21.31c0.49,0.03,1,0,1.48,0.08
		c29.37,5.37,55.84-1.18,79.49-19.4c7.57-5.83,13.63-13.08,19.5-20.52C782.49,411.05,786.09,380.06,773.91,347.28z M683,458.13
		c-40.63-0.05-73.93-33.48-73.87-74.19c0.06-40.73,33.4-74.05,74.05-74.01c40.66,0.05,73.94,33.46,73.88,74.18
		C757,424.84,723.65,458.17,683,458.13z"/>
	<path class="st1" d="M757.37,281.58c-0.23-15.06,12.78-27.19,27.97-26.76c15.54,0.43,27.18,11.99,27.11,27.43
		c-0.07,16.12-12.19,27.74-28.48,27.55C767.54,309.61,756.81,296.23,757.37,281.58z M785.21,279.07c-2.05,0.15-3.91,0.64-3.89,3.36
		c0.02,2.04,0.93,3.44,3.12,3.32c2.28-0.13,4.26-1.11,4.39-3.67C788.94,279.89,787.23,279.21,785.21,279.07z"/>
</g>
</svg>
