<?xml version="1.0" encoding="utf-8"?>
<!-- Generator: Adobe Illustrator 26.1.0, SVG Export Plug-In . SVG Version: 6.00 Build 0)  -->
<svg version="1.1" id="Calque_1" xmlns="http://www.w3.org/2000/svg" xmlns:xlink="http://www.w3.org/1999/xlink" x="0px" y="0px"
	 viewBox="0 0 284.4 284.4" style="enable-background:new 0 0 284.4 284.4;" xml:space="preserve">
<style type="text/css">
	.st0{fill:#F8F9F9;}
	.st1{fill:#F0F0F1;}
</style>
<g>
	<path class="st0" d="M143.87,258.78C79.3,259.54,27.13,207.77,26.24,144.25C25.33,79.31,77.21,27.33,140.29,26.22
		c65.38-1.15,117.39,51,118.52,114.02C259.98,205.67,207.58,258.17,143.87,258.78z M141.11,256.81
		c62.93,0.88,115.63-49.92,115.74-114.23c0.11-61.65-49.19-112.98-111.76-114.36C81.32,26.81,29.73,77.47,28.23,139.62
		C26.69,203.74,77.86,256.09,141.11,256.81z"/>
	<path class="st0" d="M148.1,146.6c1.04,1.18,1.68,2.59,2.28,4.02c0.51,1.21,0.39,2.43,0.27,3.67c-0.51,5.49-1.02,10.98-1.54,16.47
		c-0.65,6.86-1.33,13.71-1.98,20.56c-0.69,7.32-1.36,14.65-2.05,21.97c-0.55,5.83-1.12,11.65-1.68,17.47
		c-0.26,2.76-0.54,5.51-0.77,8.27c-0.05,0.59-0.25,1.02-0.81,1.18c-0.57,0.16-1.14,0.12-1.58-0.36c-0.93-1.02-1.68-2.17-2.45-3.31
		c-5.33-7.84-10.48-15.8-15.54-23.82c-0.5-0.79-0.99-1.58-1.53-2.34c-0.33-0.46-0.35-0.86-0.1-1.36c1.77-3.6,3.51-7.22,5.31-10.81
		c0.37-0.75,0.3-1.22-0.29-1.81c-7.24-7.23-14.47-14.48-21.69-21.73c-4.04-4.06-8.06-8.13-12.09-12.2c-2.13-2.15-4.27-4.3-6.42-6.44
		c-0.28-0.28-0.43-0.56-0.46-0.94c-0.07-1.27-0.16-2.53-0.23-3.8c-0.31-5.79-0.63-11.58-0.93-17.38c-0.18-3.39-0.33-6.78-0.49-10.16
		c-0.01-0.26-0.02-0.52-0.17-0.75c-0.33-0.48,0.03-0.94,0.02-1.42c-0.02-1.34-0.19-2.68-0.25-4.01c-0.11-2.61-0.34-5.21-0.39-7.82
		c-0.05-2.12-0.13-4.24-0.35-6.34c-0.06-0.6,0.09-1.07,0.21-1.59l0.01,0c0.08-0.01,0.15-0.02,0.23-0.03
		c2.25,1.17,4.5,2.33,6.74,3.51c3.17,1.68,6.33,3.39,9.51,5.08c4.5,2.39,9,4.77,13.49,7.17c1.39,0.74,2.76,1.5,4.14,2.25
		c0.49,0.18,0.64-0.15,0.75-0.52c0,0,0.02-0.02,0.02-0.02c0.28-0.02,0.57,0.01,0.78-0.25c0.55-0.68,1.38-1.18,1.38-2.2
		c0,0,0.05-0.03,0.05-0.03c0.41-0.2,0.74-0.48,0.87-0.93c0.27-0.16,0.28-0.56,0.6-0.68c0.12,0.05,0.28,0.16,0.34,0.12
		c0.58-0.34,1.35-0.38,1.68-1.12c0.15-0.34,0.34-0.72,0.74-0.14c0.22,0.32,0.46,0.21,0.51-0.16c0.05-0.34,0.03-0.68,0.4-0.86
		c0.13-0.07,0.17-0.21,0.05-0.32c-0.21-0.18-0.55-0.33-0.36-0.67c0.23-0.4,0.48,0.1,0.74,0.05c0.1-0.02,0.21,0,0.31-0.02
		c0.56-0.1,0.68,0.27,0.53,0.65c-0.3,0.73-0.24,1.47-0.25,2.22c0,0.33-0.06,0.65-0.33,0.84c-0.89,0.61-1,1.49-0.92,2.47
		c0.04,0.54,0,1.09,0.01,1.63c0,0.32-0.03,0.65-0.3,0.85c-0.94,0.66-1.01,1.61-0.95,2.63c0.03,0.52,0,1.04,0,1.55
		c0,0.33-0.07,0.63-0.34,0.83c-0.83,0.61-0.99,1.46-0.91,2.41c0.04,0.57,0,1.14,0.01,1.71c0,0.33-0.06,0.64-0.33,0.84
		c-0.86,0.63-1,1.51-0.93,2.49c0.04,0.54,0,1.09,0.01,1.63c0,0.32-0.04,0.64-0.31,0.84c-0.89,0.65-1.02,1.55-0.94,2.56
		c0.04,0.52,0,1.04,0.01,1.55c0.01,0.35-0.06,0.69-0.35,0.91c-0.8,0.6-0.98,1.4-0.9,2.34c0.04,0.54-0.01,1.09,0.01,1.63
		c0.02,0.44-0.08,0.83-0.45,1.1c-1.04,0.77-0.88,1.87-0.73,2.91c0.08,0.57,0.43,0.84,1.14,0.63c0.64-0.19,1.37-0.12,2.06-0.16
		c0.12-0.01,0.28,0,0.31,0.17c0.03,0.16-0.1,0.23-0.23,0.26c-0.45,0.11-0.92,0.33-1.36,0.28c-0.74-0.09-1.35,0.08-1.99,0.42
		c-0.45,0.24-0.96,0.12-1.41-0.23c0.39-0.29,0.81,0.04,1.17-0.16c-0.74-0.65-1.8-0.46-2.07,0.37c-0.12,0.38-0.3,0.54-0.69,0.6
		c-1.73,0.26-3.48,0.34-5.2,0.73c-1.78,0.41-3.6,0.66-5.42,0.91c-2.07,0.29-4.13,0.8-6.21,1.14c-2.65,0.43-5.31,0.78-7.94,1.29
		c-0.99,0.19-2.04,0.14-3.08,0.55c0.24,0.21,0.45,0.18,0.64,0.18c2.88,0,5.75,0.02,8.63-0.01c1.18-0.01,2.36-0.07,3.32-0.91
		c0.17-0.15,0.38-0.14,0.59-0.05c0.73,0.35,1.39,0.14,2.07-0.22c0.88-0.47,1.83-0.84,2.8-0.3c0.47,0.26,0.86,0.25,1.21-0.05
		c0.57-0.5,1.26-0.59,1.95-0.63c0.63-0.04,1.23-0.15,1.8-0.44c0.26-0.13,0.53-0.18,0.82-0.2c0.74-0.04,1.57,0.24,2.13-0.55
		c0.04-0.06,0.2-0.06,0.3-0.06c0.91,0.03,1.8-0.25,2.71-0.17c0.5,0.05,0.97-0.06,1.42-0.3c0.78-0.41,1.7-0.37,2.48-0.34
		c1.23,0.05,2.42,0.41,3.49-0.5c0.07-0.06,0.19-0.07,0.3-0.08c1.01-0.1,1.97-0.42,3.03-0.46c1.94-0.07,3.87-0.51,5.72-1.16
		c0.79-0.28,1.65-0.03,2.43-0.37c0.08-0.04,0.26,0.05,0.35,0.12c0.48,0.4,1.01,0.24,1.55,0.23c0.69-0.01,1.02-0.61,1.65-0.76
		c1.52-0.37,3.06-0.45,4.6-0.59c0.65-0.06,1.4-0.06,1.94-0.32C145.31,146.89,146.73,146.91,148.1,146.6z M84.72,129.41
		c0,0.54-0.62,1.09,0.01,1.65c0.15,0.13,0.06,0.34-0.02,0.51c-0.14,0.32-0.19,0.66-0.12,0.99c0.31,1.56,0.18,3.15,0.24,4.72
		c0.08,2.43,0.24,4.84,0.48,7.26c0.06,0.63,0.21,1.27,0.15,1.9c-0.14,1.44-0.06,2.88,0.12,4.31c0.06,0.52,0.06,1.03,0.04,1.54
		c-0.02,0.75,0.05,1.5,0.09,2.38c1.03-0.82,1.68-1.73,2.39-2.57c1.65-1.95,3.48-3.74,5.01-5.79c0.93-1.25,2.14-2.29,3.2-3.45
		c1.38-1.52,2.83-2.99,4.05-4.63c0.42-0.56,1.72-1.32,0.46-2.36c-0.05-0.04-0.05-0.15-0.05-0.22c0-0.23-0.07-0.52,0.21-0.61
		c0.34-0.11,0.35,0.19,0.41,0.42c0.07,0.26,0.2,0.51,0.51,0.5c0.29-0.01,0.35-0.27,0.38-0.51c0.04-0.31-0.03-0.51-0.37-0.67
		c-0.99-0.45-2.04-0.26-3.06-0.3c-0.42-0.02-0.96,0.03-1.07-0.44c-0.2-0.85-0.77-0.84-1.42-0.81c-0.6,0.03-1.08-0.11-1.23-0.79
		c-0.08-0.39-0.39-0.45-0.72-0.45c-0.67,0-1.35,0-2.02-0.01c-0.38,0-0.79-0.09-0.88-0.5c-0.15-0.73-0.64-0.78-1.22-0.74
		c-0.67,0.04-1.26-0.05-1.41-0.87c-0.04-0.19-0.19-0.33-0.38-0.34c-0.8-0.01-1.61-0.08-2.4,0.02c-0.55,0.07-0.52,0.78-0.83,1.14
		c-0.02,0.03-0.09,0.02-0.14,0.02C84.79,130.36,84.99,129.84,84.72,129.41z M146.5,155.63c0.92-1.59,2.47-3.02,1.37-5.14
		c-0.23-0.44-0.38-1.23-0.8-1.17c-0.57,0.08-0.39,0.83-0.43,1.33c-0.06,0.95,0.18,1.92-0.15,2.84
		C146.25,154.21,146.35,154.9,146.5,155.63z"/>
	<path class="st1" d="M148.1,146.6c-1.36,0.31-2.78,0.29-4.1,0.93c-0.53,0.26-1.28,0.26-1.94,0.32c-1.54,0.13-3.08,0.22-4.6,0.59
		c-0.63,0.15-0.96,0.75-1.65,0.76c-0.54,0.01-1.07,0.17-1.55-0.23c-0.09-0.08-0.27-0.16-0.35-0.12c-0.78,0.34-1.64,0.09-2.43,0.37
		c-1.85,0.65-3.78,1.09-5.72,1.16c-1.05,0.04-2.01,0.36-3.03,0.46c-0.1,0.01-0.22,0.02-0.3,0.08c-1.07,0.92-2.26,0.55-3.49,0.5
		c-0.78-0.03-1.7-0.06-2.48,0.34c-0.45,0.24-0.92,0.34-1.42,0.3c-0.91-0.08-1.8,0.19-2.71,0.17c-0.1,0-0.25,0-0.3,0.06
		c-0.56,0.79-1.39,0.51-2.13,0.55c-0.29,0.02-0.56,0.06-0.82,0.2c-0.56,0.28-1.16,0.4-1.8,0.44c-0.7,0.04-1.38,0.13-1.95,0.63
		c-0.35,0.3-0.74,0.32-1.21,0.05c-0.97-0.54-1.92-0.18-2.8,0.3c-0.68,0.36-1.33,0.57-2.07,0.22c-0.2-0.09-0.41-0.11-0.59,0.05
		c-0.96,0.85-2.15,0.9-3.32,0.91c-2.88,0.03-5.75,0.01-8.63,0.01c-0.19,0-0.4,0.03-0.64-0.18c1.04-0.41,2.09-0.36,3.08-0.55
		c2.63-0.51,5.3-0.86,7.94-1.29c2.08-0.34,4.14-0.86,6.21-1.14c1.82-0.25,3.64-0.5,5.42-0.91c1.72-0.4,3.47-0.48,5.2-0.73
		c0.39-0.06,0.56-0.22,0.69-0.6c0.27-0.83,1.33-1.02,2.07-0.37c-0.37,0.21-0.78-0.13-1.17,0.16c0.45,0.34,0.96,0.47,1.41,0.23
		c0.64-0.35,1.25-0.51,1.99-0.42c0.44,0.05,0.91-0.17,1.36-0.28c0.13-0.03,0.26-0.1,0.23-0.26c-0.03-0.16-0.19-0.17-0.31-0.17
		c-0.69,0.04-1.41-0.03-2.06,0.16c-0.71,0.21-1.06-0.06-1.14-0.63c-0.15-1.04-0.31-2.14,0.73-2.91c0.36-0.27,0.46-0.66,0.45-1.1
		c-0.02-0.54,0.03-1.09-0.01-1.63c-0.08-0.94,0.11-1.75,0.9-2.34c0.29-0.22,0.36-0.55,0.35-0.91c-0.01-0.52,0.03-1.04-0.01-1.55
		c-0.08-1.01,0.05-1.91,0.94-2.56c0.27-0.2,0.31-0.52,0.31-0.84c0-0.54,0.03-1.09-0.01-1.63c-0.08-0.98,0.07-1.85,0.93-2.49
		c0.27-0.2,0.33-0.51,0.33-0.84c-0.01-0.57,0.04-1.14-0.01-1.71c-0.08-0.96,0.08-1.8,0.91-2.41c0.27-0.2,0.34-0.5,0.34-0.83
		c-0.01-0.52,0.03-1.04,0-1.55c-0.06-1.02,0.01-1.97,0.95-2.63c0.27-0.19,0.3-0.52,0.3-0.85c0-0.54,0.03-1.09-0.01-1.63
		c-0.08-0.98,0.03-1.86,0.92-2.47c0.27-0.19,0.33-0.51,0.33-0.84c0.01-0.75-0.05-1.49,0.25-2.22c0.15-0.37,0.04-0.75-0.53-0.65
		c-0.1,0.02-0.21,0-0.31,0.02c-0.26,0.04-0.51-0.45-0.74-0.05c-0.2,0.34,0.15,0.49,0.36,0.67c0.12,0.11,0.09,0.25-0.05,0.32
		c-0.37,0.19-0.35,0.53-0.4,0.86c-0.05,0.36-0.29,0.48-0.51,0.16c-0.39-0.58-0.59-0.2-0.74,0.14c-0.33,0.74-1.1,0.78-1.68,1.12
		c-0.07,0.04-0.23-0.08-0.34-0.12c0.61-1.1,1.6-1.87,2.41-2.81c2.34-2.72,4.74-5.39,7.11-8.08c2.82-3.19,5.63-6.38,8.45-9.55
		c3.35-3.77,6.72-7.52,10.07-11.29c0.93-1.04,1.83-2.11,2.76-3.15c0.24-0.27,0.44-0.58,0.79-0.73c0.11,0.73,0.42,1.43,0.29,2.21
		c-0.31,1.86-0.7,3.7-1.03,5.55c-0.43,2.44-0.4,4.94-1.08,7.35c-0.16,0.58,0.08,1.29-0.12,1.85c-0.59,1.66-0.6,3.4-0.86,5.1
		c-0.23,1.48-0.47,2.96-0.69,4.44c-0.24,1.53-0.58,3.06-0.67,4.6c-0.09,1.57-0.66,3.08-0.54,4.68c0.01,0.1-0.07,0.19-0.09,0.3
		c-0.22,1.27-0.53,2.53-0.62,3.81c-0.11,1.55-0.39,3.07-0.6,4.59c-0.33,2.39-0.77,4.77-1.14,7.16c-0.22,1.4-0.2,2.86-0.54,4.22
		c-0.41,1.64-0.43,3.33-0.86,4.95c-0.4,1.53-0.14,3.14-0.61,4.67c-0.22,0.71,0.13,1,0.88,0.85c0.86-0.17,1.73-0.34,2.58-0.53
		c0.2-0.04,0.45-0.11,0.55-0.26c0.59-0.88,1.61-1.15,2.42-1.71c1.46-1.02,2.78-2.22,4.17-3.32c1.49-1.19,3.01-2.34,4.53-3.48
		c2.8-2.11,5.61-4.23,8.33-6.42c2.56-2.06,5.19-4.05,7.7-6.18c1.87-1.58,3.9-2.97,5.84-4.49c3.03-2.37,5.97-4.86,9.06-7.14
		c1.93-1.42,3.79-2.94,5.62-4.47c1.58-1.32,3.31-2.42,4.81-3.87c1.59-1.53,3.52-2.71,5.31-4.04c-0.04,0.38,0.23,0.39,0.49,0.45
		c6.59,1.51,13.18,3.01,19.76,4.53c1.23,0.28,2.45,0.58,3.8,0.9c-0.69,0.62-1.44,0.84-2.12,1.17c-5.22,2.54-10.44,5.05-15.67,7.56
		c-8.68,4.17-17.37,8.32-26.05,12.5c-9.07,4.37-18.14,8.76-27.21,13.14c-3.22,1.55-6.43,3.11-9.65,4.66
		C147.28,145.49,147.27,145.5,148.1,146.6z"/>
	<path class="st0" d="M205.19,99.97c-1.78,1.33-3.72,2.51-5.31,4.04c-1.5,1.44-3.23,2.55-4.81,3.87c-1.83,1.53-3.69,3.04-5.62,4.47
		c-3.09,2.28-6.04,4.77-9.06,7.14c-1.93,1.51-3.96,2.91-5.84,4.49c-2.51,2.13-5.14,4.11-7.7,6.18c-2.73,2.2-5.53,4.32-8.33,6.42
		c-1.52,1.14-3.04,2.3-4.53,3.48c-1.39,1.1-2.71,2.29-4.17,3.32c-0.8,0.56-1.83,0.83-2.42,1.71c-0.1,0.14-0.35,0.21-0.55,0.26
		c-0.86,0.19-1.72,0.36-2.58,0.53c-0.74,0.15-1.09-0.14-0.88-0.85c0.47-1.53,0.2-3.15,0.61-4.67c0.43-1.63,0.45-3.31,0.86-4.95
		c0.34-1.37,0.32-2.82,0.54-4.22c0.37-2.39,0.81-4.77,1.14-7.16c0.21-1.52,0.49-3.05,0.6-4.59c0.09-1.28,0.4-2.54,0.62-3.81
		c0.02-0.1,0.09-0.2,0.09-0.3c-0.11-1.59,0.45-3.1,0.54-4.68c0.09-1.54,0.43-3.07,0.67-4.6c0.23-1.48,0.47-2.96,0.69-4.44
		c0.26-1.7,0.27-3.44,0.86-5.1c0.2-0.56-0.04-1.26,0.12-1.85c0.68-2.4,0.65-4.91,1.08-7.35c0.32-1.85,0.72-3.69,1.03-5.55
		c0.13-0.78-0.17-1.48-0.29-2.21c0.47-0.5,0.78-1.14,1.35-1.56c0.25,0.09,0.3,0.3,0.39,0.53c0.18,0.46-0.12,0.85-0.13,1.27
		c-0.07,2.45-0.55,4.85-0.68,7.29c-0.13,2.47-0.75,4.9-0.63,7.4c0.01,0.24-0.06,0.46-0.22,0.65c-0.44,0.5-0.45,1.08-0.32,1.69
		c0.08,0.36,0.14,0.73,0.04,1.08c-0.45,1.63-0.36,3.32-0.68,4.98c-0.41,2.15-0.45,4.36-0.64,6.55c-0.2,2.38-0.44,4.77-0.75,7.14
		c-0.42,3.29-0.7,6.6-1.1,9.89c-0.26,2.17-0.56,4.34-0.7,6.53c-0.1,1.69-0.27,3.38-0.59,5.06c-0.32,1.69-0.18,3.45-0.58,5.14
		c-0.04,0.16-0.06,0.32,0.12,0.4c0.18,0.08,0.26-0.07,0.38-0.18c0.67-0.64,1.35-1.26,2.1-1.82c0.57-0.42,1.42-0.51,1.74-1.1
		c0.53-1,1.71-1.14,2.32-2.13c0.58-0.93,1.96-1.18,2.66-2.27c0.35-0.53,0.56-0.96,0.56-1.56c0-15.06,0-30.12,0.01-45.18
		c0-0.35-0.21-0.96,0.26-0.98c0.36-0.01,0.18,0.61,0.18,0.95c0.01,14.57,0.01,29.14,0.01,43.71c0,0.31-0.01,0.62-0.03,0.93
		c-0.03,0.39-0.33,0.86,0.19,1.11c0.51,0.25,0.86-0.11,1.21-0.46c0.2-0.19,0.34-0.37,0.36-0.65c0.02-0.35,0.22-0.55,0.56-0.66
		c0.83-0.28,1.01-0.67,0.64-1.45c-0.23-0.49-0.28-0.98-0.28-1.51c0-8.97,0-17.94,0-26.91c0-2.64,0-5.29,0-7.93
		c0-0.57,0.07-1.04,0.77-1.13c0.4-0.05,0.48-0.35,0.48-0.69c0-4.51,0.02-9.02-0.01-13.53c-0.01-1.09-0.41-1.42-1.5-1.48
		c-0.17-0.01-0.37,0.07-0.51-0.21c0.38-0.1,0.75-0.21,1.22-0.33c-0.65-0.16-1.28,0.03-1.68-0.51c2.32,0.22,4.64,0.42,6.96,0.65
		c3.97,0.39,7.93,0.8,11.9,1.21c4.87,0.5,9.73,1,14.6,1.49c3.84,0.39,7.68,0.75,11.51,1.14c3.84,0.39,7.67,0.82,11.51,1.21
		c2.86,0.29,5.72,0.55,8.58,0.83c0.1,0.01,0.21,0,0.31,0.02c0.19,0.05,0.46,0.01,0.51,0.26c0.04,0.2-0.17,0.3-0.31,0.41
		c-1.07,0.85-2.15,1.7-3.23,2.55c-4.75,3.72-9.49,7.45-14.24,11.17C206.53,99.02,205.85,99.49,205.19,99.97z"/>
	<path class="st1" d="M159.1,77.58c0.4,0.54,1.03,0.35,1.68,0.51c-0.47,0.13-0.83,0.23-1.22,0.33c0.14,0.28,0.34,0.2,0.51,0.21
		c1.09,0.06,1.49,0.39,1.5,1.48c0.03,4.51,0.01,9.02,0.01,13.53c0,0.34-0.08,0.64-0.48,0.69c-0.7,0.09-0.77,0.56-0.77,1.13
		c0.01,2.64,0,5.29,0,7.93c0,8.97,0,17.94,0,26.91c0,0.52,0.05,1.02,0.28,1.51c0.37,0.78,0.18,1.17-0.64,1.45
		c-0.34,0.11-0.53,0.32-0.56,0.66c-0.02,0.28-0.16,0.46-0.36,0.65c-0.35,0.34-0.69,0.7-1.21,0.46c-0.52-0.25-0.22-0.72-0.19-1.11
		c0.02-0.31,0.03-0.62,0.03-0.93c0-14.57,0-29.14-0.01-43.71c0-0.33,0.17-0.96-0.18-0.95c-0.47,0.01-0.26,0.63-0.26,0.98
		c-0.01,15.06-0.01,30.12-0.01,45.18c0,0.6-0.22,1.02-0.56,1.56c-0.71,1.08-2.09,1.34-2.66,2.27c-0.61,0.99-1.79,1.13-2.32,2.13
		c-0.32,0.59-1.17,0.68-1.74,1.1c-0.75,0.56-1.43,1.18-2.1,1.82c-0.12,0.11-0.2,0.26-0.38,0.18c-0.18-0.08-0.16-0.24-0.12-0.4
		c0.4-1.69,0.26-3.44,0.58-5.14c0.32-1.68,0.48-3.37,0.59-5.06c0.13-2.19,0.44-4.36,0.7-6.53c0.4-3.29,0.68-6.6,1.1-9.89
		c0.3-2.37,0.55-4.75,0.75-7.14c0.18-2.19,0.23-4.4,0.64-6.55c0.32-1.65,0.23-3.35,0.68-4.98c0.1-0.35,0.04-0.72-0.04-1.08
		c-0.13-0.6-0.12-1.19,0.32-1.69c0.16-0.18,0.23-0.41,0.22-0.65c-0.13-2.49,0.5-4.93,0.63-7.4c0.13-2.44,0.61-4.85,0.68-7.29
		c0.01-0.42,0.31-0.8,0.13-1.27c-0.09-0.22-0.14-0.44-0.39-0.53c0.34-0.71,0.85-1.03,1.67-0.8c0.48,0.14,1.02-0.01,1.5,0.2
		c-0.08,0.15-0.45,0.25-0.29,0.36c0.41,0.29,0.89,0.47,1.36,0.65c0.04,0.02,0.57-0.06,0.31-0.48c-0.1-0.16,0.11-0.26,0.19-0.38
		C158.79,77.55,158.94,77.57,159.1,77.58z M158.93,83.16c0-0.96,0.01-1.91,0-2.87c0-0.22,0.08-0.57-0.23-0.57
		c-0.3,0-0.23,0.36-0.23,0.57c-0.01,1.91-0.01,3.83,0,5.74c0,0.19-0.08,0.51,0.18,0.52c0.33,0.02,0.27-0.32,0.28-0.53
		C158.94,85.07,158.93,84.11,158.93,83.16z M155.77,77.63c-0.05-0.02-0.08-0.05-0.12-0.05c-0.02,0-0.03,0.05-0.05,0.08
		c0.02,0.01,0.05,0.02,0.06,0.02C155.7,77.68,155.73,77.65,155.77,77.63z"/>
	<path class="st1" d="M82.4,101.82c-0.11,0.52-0.27,0.99-0.21,1.59c0.23,2.1,0.3,4.23,0.35,6.34c0.06,2.61,0.28,5.21,0.39,7.82
		c0.06,1.33,0.23,2.67,0.25,4.01c0.01,0.47-0.35,0.94-0.02,1.42c-5.7,0.23-11.39,0.45-17.09,0.68c-1.5,0.06-3,0.12-4.5,0.18
		c-0.17,0.01-0.4,0.09-0.49-0.12c-0.09-0.21,0.13-0.32,0.24-0.44c1.94-2.05,3.89-4.09,5.84-6.13c2.41-2.53,4.83-5.05,7.24-7.58
		c2.43-2.55,4.86-5.1,7.29-7.65c0.15-0.16,0.26-0.41,0.56-0.34C82.3,101.68,82.35,101.75,82.4,101.82z"/>
	<path class="st1" d="M119.44,116.81c0,1.02-0.83,1.52-1.38,2.2c-0.21,0.26-0.5,0.22-0.78,0.25
		C117.93,118.39,118.58,117.51,119.44,116.81z"/>
	<path class="st0" d="M158.64,77.54c-0.08,0.12-0.28,0.22-0.19,0.38c0.26,0.42-0.26,0.5-0.31,0.48c-0.47-0.18-0.95-0.36-1.36-0.65
		c-0.16-0.11,0.21-0.22,0.29-0.36C157.6,77.44,158.12,77.49,158.64,77.54z"/>
	<path class="st1" d="M120.36,115.84c-0.13,0.46-0.46,0.73-0.87,0.93C119.63,116.33,119.95,116.04,120.36,115.84z"/>
	<path class="st1" d="M117.26,119.28c-0.11,0.37-0.26,0.7-0.75,0.52C116.76,119.62,117.01,119.45,117.26,119.28z"/>
	<path class="st0" d="M82.4,101.82c-0.05-0.07-0.1-0.14-0.14-0.21c0.05,0.01,0.1,0.02,0.16,0.03
		C82.41,101.7,82.41,101.76,82.4,101.82L82.4,101.82z"/>
	<path class="st1" d="M82.4,101.82c0-0.06,0.01-0.12,0.01-0.18c0.07,0.05,0.15,0.1,0.22,0.14C82.56,101.8,82.48,101.81,82.4,101.82z
		"/>
	<path class="st1" d="M84.72,129.41c0.26,0.43,0.07,0.95,0.42,1.33c0.05-0.01,0.12,0.01,0.14-0.02c0.31-0.36,0.28-1.07,0.83-1.14
		c0.79-0.1,1.6-0.04,2.4-0.02c0.19,0,0.35,0.15,0.38,0.34c0.15,0.82,0.74,0.91,1.41,0.87c0.58-0.04,1.07,0.01,1.22,0.74
		c0.08,0.4,0.49,0.49,0.88,0.5c0.67,0.01,1.35,0.01,2.02,0.01c0.33,0,0.64,0.06,0.72,0.45c0.14,0.69,0.63,0.82,1.23,0.79
		c0.65-0.03,1.22-0.04,1.42,0.81c0.11,0.47,0.65,0.42,1.07,0.44c1.02,0.04,2.07-0.15,3.06,0.3c0.34,0.15,0.41,0.36,0.37,0.67
		c-0.03,0.23-0.1,0.5-0.38,0.51c-0.31,0.01-0.43-0.24-0.51-0.5c-0.06-0.22-0.08-0.52-0.41-0.42c-0.28,0.09-0.21,0.38-0.21,0.61
		c0,0.08,0,0.18,0.05,0.22c1.26,1.04-0.05,1.8-0.46,2.36c-1.22,1.64-2.67,3.11-4.05,4.63c-1.06,1.16-2.27,2.2-3.2,3.45
		c-1.53,2.06-3.36,3.85-5.01,5.79c-0.71,0.84-1.36,1.75-2.39,2.57c-0.04-0.89-0.11-1.64-0.09-2.38c0.01-0.52,0.02-1.03-0.04-1.54
		c-0.18-1.43-0.25-2.86-0.12-4.31c0.06-0.63-0.09-1.27-0.15-1.9c-0.24-2.42-0.4-4.83-0.48-7.26c-0.05-1.57,0.07-3.16-0.24-4.72
		c-0.07-0.33-0.02-0.67,0.12-0.99c0.08-0.17,0.17-0.38,0.02-0.51C84.1,130.5,84.73,129.95,84.72,129.41z"/>
	<path class="st1" d="M146.5,155.63c-0.15-0.73-0.25-1.42,0-2.13c0.32-0.92,0.08-1.89,0.15-2.84c0.03-0.5-0.15-1.25,0.43-1.33
		c0.42-0.06,0.57,0.73,0.8,1.17C148.97,152.61,147.42,154.04,146.5,155.63z"/>
	<path class="st0" d="M158.93,83.16c0,0.96,0.01,1.91-0.01,2.87c0,0.21,0.06,0.55-0.28,0.53c-0.26-0.02-0.18-0.33-0.18-0.52
		c-0.01-1.91-0.01-3.83,0-5.74c0-0.22-0.08-0.57,0.23-0.57c0.3,0,0.23,0.35,0.23,0.57C158.94,81.24,158.93,82.2,158.93,83.16z"/>
	<path class="st0" d="M155.77,77.63c-0.04,0.02-0.08,0.05-0.11,0.06c-0.02,0.01-0.04-0.01-0.06-0.02c0.02-0.03,0.03-0.08,0.05-0.08
		C155.69,77.58,155.72,77.61,155.77,77.63z"/>
</g>
</svg>
