<?xml version="1.0" encoding="utf-8"?>
<!-- Generator: Adobe Illustrator 26.1.0, SVG Export Plug-In . SVG Version: 6.00 Build 0)  -->
<svg version="1.1" id="Calque_1" xmlns="http://www.w3.org/2000/svg" xmlns:xlink="http://www.w3.org/1999/xlink" x="0px" y="0px"
	 viewBox="0 0 1366 768" style="enable-background:new 0 0 1366 768;" xml:space="preserve">
<style type="text/css">
	.st0{fill:#010201;}
	.st1{fill:#4CAE50;}
</style>
<g>
	<path class="st0" d="M667.11,192.09c13.46,0,26.91,0,40.37,0c1.21,1.52,2.96,0.73,4.43,0.94c31.28,4.46,59.55,16.26,84.92,34.99
		c45.3,33.45,70.74,78.51,76.39,134.41c3.92,38.81-3.38,75.98-22.27,110.06c-37.44,67.56-94.8,101.85-172.47,99.92
		c-27.24-0.68-53.46-6.67-77.92-19.22c-1.52-0.78-2.9-0.89-4.61-0.44c-20.05,5.31-40.14,10.45-60.19,15.77
		c-8.56,2.28-17.28,4-25.64,7.04c-3.24,0-6.48,0-9.72,0c-7.34-5.33-8.5-8.62-6.08-17.45c7.2-26.26,14.35-52.54,21.7-78.76
		c1.14-4.06,1.26-7.47-1.16-11.17c-2.16-3.3-3.62-7.07-5.22-10.71C493.03,419.84,488.19,381,498,340.74
		c9.82-40.31,31.36-73.43,62.52-100.35c27.27-23.57,58.62-38.93,94.11-45.71C658.79,193.88,663.21,194.22,667.11,192.09z
		 M522.17,546.98c0.88-0.08,1.36-0.06,1.8-0.17c23.1-6.02,46.23-11.91,69.26-18.19c5.24-1.43,9.82-0.79,14.39,1.51
		c20.61,10.35,42.39,16.19,65.4,18.02c29.96,2.38,58.61-2.21,85.61-15.51c36.32-17.89,62.24-45.94,78.62-82.86
		c13.2-29.75,18.56-60.8,12.83-93.07c-7.29-41.06-27.21-75.51-58.76-102.33c-36.96-31.41-80.27-44.44-128.34-36.46
		c-54.61,9.07-96.22,38.46-124.5,86.13c-17.88,30.14-24.33,63.01-20,97.82c2.74,22.04,10.19,42.6,21.18,61.84
		c2.61,4.57,3.07,8.95,1.62,13.94c-3.43,11.84-6.62,23.76-9.89,35.64C528.34,524.41,525.3,535.54,522.17,546.98z"/>
	<path class="st1" d="M522.17,546.98c3.13-11.44,6.17-22.57,9.23-33.69c3.27-11.89,6.45-23.8,9.89-35.64
		c1.45-4.99,0.99-9.37-1.62-13.94c-10.99-19.24-18.43-39.8-21.18-61.84c-4.33-34.81,2.11-67.67,20-97.82
		c28.28-47.67,69.89-77.06,124.5-86.13c48.07-7.98,91.38,5.04,128.34,36.46c31.56,26.82,51.47,61.28,58.76,102.33
		c5.73,32.26,0.36,63.32-12.83,93.07c-16.38,36.92-42.29,64.97-78.62,82.86c-27,13.29-55.65,17.89-85.61,15.51
		c-23.01-1.83-44.78-7.67-65.4-18.02c-4.58-2.3-9.15-2.93-14.39-1.51c-23.03,6.28-46.16,12.17-69.26,18.19
		C523.53,546.92,523.05,546.9,522.17,546.98z M725.51,483.52c4,0.08,7.96-0.26,11.92-0.82c24.54-3.47,43.65-23.02,46.01-47.58
		c0.85-8.84-1.59-16.35-10.14-21.15c-13.4-7.51-27.37-13.67-41.75-18.97c-8.12-2.99-15.11-0.9-21.19,5.06
		c-3.22,3.16-5.88,6.78-8.65,10.3c-5.01,6.37-4.94,6.3-12.1,2.74c-19.13-9.53-35.13-22.57-46.45-41c-1.3-2.12-1.17-3.32,0.49-5.05
		c3.02-3.14,5.8-6.52,8.11-10.25c4.82-7.78,5.73-15.74,1.49-24.14c-3.36-6.67-6.34-13.53-8.97-20.54
		c-1.84-4.89-3.66-9.81-5.79-14.58c-1.92-4.28-4.63-8.37-9.09-10.05c-12.99-4.89-26.34-6.46-37.98,2.75
		c-17.41,13.78-24.21,32.77-23.22,54.53c0.76,16.74,7.33,31.75,16.22,45.65c22.92,35.83,54.33,62.04,92.38,80.43
		C692.14,478.27,708.23,483.32,725.51,483.52z"/>
	<path class="st0" d="M725.51,483.52c-17.27-0.2-33.37-5.25-48.72-12.67c-38.05-18.39-69.46-44.61-92.38-80.43
		c-8.89-13.9-15.46-28.91-16.22-45.65c-0.99-21.76,5.82-40.75,23.22-54.53c11.64-9.21,24.98-7.65,37.98-2.75
		c4.46,1.68,7.17,5.78,9.09,10.05c2.14,4.77,3.95,9.68,5.79,14.58c2.64,7.01,5.61,13.87,8.97,20.54c4.23,8.4,3.33,16.36-1.49,24.14
		c-2.31,3.73-5.09,7.11-8.11,10.25c-1.66,1.73-1.79,2.93-0.49,5.05c11.32,18.43,27.32,31.47,46.45,41c7.16,3.57,7.1,3.63,12.1-2.74
		c2.77-3.53,5.43-7.14,8.65-10.3c6.07-5.96,13.07-8.05,21.19-5.06c14.38,5.3,28.35,11.46,41.75,18.97
		c8.55,4.79,10.98,12.3,10.14,21.15c-2.35,24.57-21.47,44.12-46.01,47.58C733.47,483.26,729.51,483.6,725.51,483.52z M726.35,459.59
		c3.26,0.08,6.48-0.27,9.66-0.9c11.93-2.34,20.47-10.41,22.84-21.4c0.58-2.69,0.05-4.26-2.69-5.44
		c-9.01-3.88-17.95-7.94-26.82-12.12c-2.5-1.18-3.89-0.71-5.54,1.39c-3.85,4.9-7.52,9.95-11.88,14.43
		c-6.27,6.43-13.54,8.03-21.79,4.45c-3.75-1.63-7.38-3.56-11.05-5.38c-24.49-12.09-44.3-29.3-58.23-53.06
		c-5.86-10-5.78-16.35,1.23-25.78c2.6-3.49,5.62-6.67,8.36-10.06c0.88-1.09,2.06-2.11,1.05-3.94c-5.55-10.05-9.53-20.78-13.43-31.54
		c-0.33-0.9-0.52-1.98-1.84-2.04c-4.94-0.21-9.93-1.1-13.67,3.7c-7.41,9.51-11.49,20.05-10.48,32.22
		c0.94,11.43,5.3,21.75,11.22,31.36c19.97,32.41,47.72,56.18,81.66,72.87C697.99,454.75,711.63,459.27,726.35,459.59z"/>
</g>
</svg>
